<?xml version="1.0" standalone="no"?>
<!DOCTYPE svg PUBLIC "-//W3C//DTD SVG 20010904//EN"
 "http://www.w3.org/TR/2001/REC-SVG-20010904/DTD/svg10.dtd">
<svg version="1.0" xmlns="http://www.w3.org/2000/svg"
 width="3266.000000pt" height="1872.000000pt" viewBox="0 0 3266.000000 1872.000000"
 preserveAspectRatio="xMidYMid meet">

<g transform="translate(0.000000,1872.000000) scale(0.100000,-0.100000)"
fill="#000000" stroke="none">
<path d="M12015 18703 c-701 -55 -1246 -178 -1860 -418 -255 -100 -674 -294
-803 -372 -28 -17 -16 -18 417 -18 436 0 591 -7 926 -41 1372 -138 2399 -578
2941 -1259 178 -224 318 -489 374 -709 78 -307 25 -716 -136 -1055 -107 -224
-115 -234 -718 -839 l-551 -552 230 -230 230 -231 -179 -177 c-560 -553
-12866 -12784 -12866 -12788 0 -2 717 -4 1594 -4 l1593 0 4109 4087 c2260
2247 4835 4809 5722 5691 l1613 1606 344 -344 344 -344 63 58 c319 289 637
487 982 611 402 144 856 196 1271 144 319 -40 546 -183 691 -436 72 -125 88
-196 159 -688 l65 -450 390 -390 390 -390 1265 1265 1265 1265 -388 388 -389
388 -445 64 c-245 35 -467 70 -494 76 -199 50 -387 186 -502 362 -49 74 -102
196 -117 264 -3 17 -53 354 -109 747 l-103 716 -135 167 c-276 342 -562 656
-934 1023 -1537 1516 -3231 2467 -4878 2740 -183 30 -383 54 -590 70 -115 9
-680 11 -781 3z"/>
<path d="M21517 9452 l-798 -798 318 -316 c175 -175 2138 -2119 4363 -4322
l4045 -4005 1605 0 1605 -1 -175 174 c-418 415 -10041 9945 -10100 10002 l-65
64 -798 -798z"/>
<path d="M10083 5064 c-2518 -2501 -4693 -4661 -4833 -4800 l-255 -254 575 0
575 0 4560 4529 c2507 2490 4560 4532 4562 4538 3 8 -556 504 -593 526 -9 5
-1441 -1410 -4591 -4539z"/>
</g>
</svg>
